<?xml version="1.0" encoding="utf-8"?>
<!-- Generator: Adobe Illustrator 17.1.0, SVG Export Plug-In . SVG Version: 6.00 Build 0)  -->
<!DOCTYPE svg PUBLIC "-//W3C//DTD SVG 1.1//EN" "http://www.w3.org/Graphics/SVG/1.1/DTD/svg11.dtd">
<svg version="1.1" id="Livello_1" xmlns="http://www.w3.org/2000/svg" xmlns:xlink="http://www.w3.org/1999/xlink" x="0px" y="0px"
	 viewBox="0 0 283.5 141.7" enable-background="new 0 0 283.5 141.7" xml:space="preserve">
<g>
	<path fill="#148D98" d="M47.7,49.9c-7.4,1.1-14,4-19.7,8.5c-5.6,4.4-10.7,9.4-16.5,14.5c0.4-1.8,0.8-3.2,1-4.6
		C15.4,53.2,24.1,43,38.9,38.9c15-4.1,28,0.1,37.9,12c7.5,9,10,19.7,7.4,31.1c-3.5,15.4-13.2,25.3-28.7,28.3
		c-16.7,3.2-31.7-4.2-39.3-19.2c-2-4-1.3-8.5,0.6-12.5c3.9-8.5,10.8-13.8,19.5-16.9c3.1-1.1,6.1-0.3,7.5,2.2
		c0.8,1.5,0.9,3.6,0.8,5.4c-0.4,7.2,2.1,11.6,8.9,14.2c3.3,1.3,6.7,0.8,9.9-0.9c6.4-3.3,10.8-8,10.2-14.9c-0.6-6.9-4-12.1-10.3-15.4
		c-3.9-2.1-8-3-12.4-2.9C49.8,49.4,48.8,49.7,47.7,49.9z"/>
	<path fill="#283651" d="M268.9,45c-0.7,15.7-1.1,31.1-0.1,46.9c-1.3,0-3.1,0-5.1,0c-0.1-0.8-0.2-1.7-0.3-2.6
		c-1.9,1-3.4,2.3-5.2,2.8c-7,1.9-12-0.8-14.5-7.6c-2.4-6.6-0.7-14.7,4-19c3.5-3.2,7.8-4.2,12.4-4.2c1.2,0,2.3,0,3.3,0
		c0-5.3,0-10.3,0-15.5C264.9,45.6,266.8,45.3,268.9,45z M263.5,73.8C263.5,73.8,263.5,73.8,263.5,73.8c-0.1-2.4-0.1-4.8-0.1-7.2
		c0-1.7-0.9-2.8-2.4-3c-1.7-0.2-3.5-0.2-5.1,0.3c-4.6,1.4-7,4.8-7.8,9.4c-0.9,5.6-0.4,11,4.4,14.8c2.2,1.8,5.2,2.1,8.1,0.8
		c2.4-1,2.8-3.2,2.9-5.5C263.6,80.2,263.5,77,263.5,73.8z"/>
	<path fill="#283651" d="M99.9,57.4c0.1-0.2,0.2-0.4,0.4-0.5c0,0,0.1,0,0.1,0l0-0.1c3.3-4.9,8.1-7.6,13.9-8.1
		c4.7-0.4,9.4-0.1,14.3-0.1c0,3,0,5.6,0,7.9c-1.9-1.6-3.5-3.6-5.6-4.5c-2.2-0.9-4.8-0.8-7.2-0.6c-2,0.2-4.1,0.8-5.8,1.9
		c-4,2.3-5.8,6.2-6.6,10.6c-1.2,6.5-0.6,12.9,3.6,18.3c3.1,4.1,7.3,5.8,12.5,5.7c3.6-0.1,6.8-0.7,9.6-3.1c0.3-0.3,1-0.1,1.7-0.2
		c-3.4,6.1-8.5,8.3-14.7,8.2c-8-0.1-13.9-4-17.4-11.3c0,0,0.1-0.1,0.1-0.1c-0.1-0.1-0.1-0.1-0.2-0.2c0-0.2-0.1-0.3-0.1-0.5
		c-0.1-0.2-0.2-0.5-0.3-0.7c-0.2-0.6-0.4-1.2-0.5-1.7c-0.1-0.2-0.2-0.5-0.2-0.7c-0.2-0.7-0.3-1.4-0.5-2.1c0-3.2,0-6.4,0-9.7
		c0-0.2,0.1-0.5,0.1-0.7c0.2-0.8,0.4-1.6,0.6-2.4c0.7-1.6,1.3-3.2,2-4.7c0-0.1,0.1-0.1,0.1-0.2c0-0.1,0.1-0.2,0.2-0.2
		c0,0,0.1,0,0.1,0L99.9,57.4z"/>
	<path fill="#283651" d="M220.3,72.6c-1.9,4.6-0.1,11.7,3.5,14.3c4,3,8.9,2.4,14.4-2c-0.4,1.3-0.4,2.2-0.8,2.8
		c-4.5,7.3-16.5,6.8-20.7-1c-3.6-6.6-3.5-13.5,0.7-20c3.5-5.5,11.6-7.1,17.2-3.7c2.4,1.5,3.6,3.7,4.1,6.3c0.4,1.9-1.7,3.4-4.3,3.3
		C229.6,72.5,224.9,72.6,220.3,72.6z M232.8,70.3c-0.1-1.3,0.2-2.6-0.2-3.7c-1.3-3.5-6.2-4.5-9.2-1.7c-1.4,1.4-2.4,3.3-3.8,5.4
		C224.2,71.1,228.2,71.5,232.8,70.3z"/>
	<path fill="#283651" d="M155.5,72.5c-0.6,0-1.2,0-1.8,0c-3.9,0-7.8-0.1-11.8-0.1c-0.3,0-0.7,0.9-1,1.3c0,1.9,0,3.7,0,5.6
		c0.3,1.2,0.7,2.4,1,3.5c0.9,1.3,1.8,2.7,2.7,4c0.1,0.1,0.2,0.1,0.2,0.2c5,2.7,9.7,2.2,14-1.8c0.2,0.2,0.4,0.3,0.6,0.5
		c-0.6,1.1-1.1,2.4-1.9,3.4c-4.8,5.4-14.4,4.9-18.7-0.8c-4.8-6.2-4.4-17.4,0.8-23c3.7-4,10.8-5.3,15.4-2.6c1.4,0.8,2.3,2.2,3.5,3.3
		c0.3,1.7,0.5,3.4,0.8,5.2c-0.2,0.2-0.4,0.4-0.5,0.5C157.6,72,156.6,72.2,155.5,72.5z M141.6,70.5c3.9,0,7.5,0.1,11.2-0.1
		c0.6,0,1.6-1.5,1.5-2c-0.3-1.4-0.9-2.9-1.9-3.8c-1.7-1.6-4-1.8-6.1-0.8C143.5,65.1,142.2,67.5,141.6,70.5z"/>
	<path fill="#283651" d="M200.6,92.2c-1,0-2.1,0-3.3,0c-3.4-10-5.6-20.3-10.8-29.9c1.5-0.2,3.1-0.5,5-0.8c4.4,8,5.5,17.1,9,25.5
		c2.8-8,6.5-15.6,6.5-24.6c1.6,0,3.6,0,5.1,0C208.3,72.2,204.4,82.1,200.6,92.2z"/>
	<path fill="#283651" d="M165.9,62.5c1.4-0.1,2.8-0.3,4.5-0.5c0.2,1.1,0.3,2.1,0.6,3.6c2.5-2.3,4.7-5.1,9.1-3.9
		c0.3,0.3,1.1,1.2,1.8,1.9c-1,1.9-2.2,2.5-4,2.3c-1.5-0.2-3.1,0-4.7,0c-2.8,2.5-2,5.9-2.2,8.8c-0.3,5,0.2,10.1,0.4,15.2
		c0,0.6,0.3,1.2,0.6,2c-2.1,0-4.2,0-6,0C165.9,82.1,165.9,72.4,165.9,62.5z"/>
	<path fill="#148D98" d="M140.9,73.7c0.3-0.5,0.7-1.3,1-1.3c3.9,0,7.8,0,11.8,0.1c-3.6,0.1-7.1,0.1-10.7,0.2
		C142.3,72.8,141.6,73.4,140.9,73.7z"/>
	<path fill="#148D98" d="M96.9,65.9c0,3.2,0,6.4,0,9.7C96.8,72.3,96.8,69.1,96.9,65.9z"/>
	<path fill="#148D98" d="M159.2,71.2c-0.3-1.7-0.5-3.4-0.8-5.2C159.8,67.6,160.2,69.3,159.2,71.2z"/>
	<path fill="#148D98" d="M155.5,72.5c1.1-0.3,2.1-0.5,3.2-0.8C157.6,72,156.6,72.2,155.5,72.5z"/>
	<path fill="#148D98" d="M141.9,82.9c-0.3-1.2-0.7-2.4-1-3.5C141.2,80.5,141.6,81.7,141.9,82.9z"/>
	<path fill="#148D98" d="M97.6,62.7c-0.2,0.8-0.4,1.6-0.6,2.4C97.2,64.3,97.4,63.5,97.6,62.7z"/>
	<path fill="#148D98" d="M97.3,77.6c0.1,0.2,0.2,0.5,0.2,0.7C97.4,78.1,97.4,77.9,97.3,77.6z"/>
	<path fill="#148D98" d="M98,80.1c0.1,0.2,0.2,0.5,0.3,0.7C98.2,80.6,98.1,80.3,98,80.1z"/>
	<path fill="#148D98" d="M98.5,81.3c0.1,0,0.1,0.1,0.2,0.2c0,0,0,0.1-0.1,0.1c-0.1-0.1-0.1-0.1-0.2-0.2
		C98.4,81.4,98.5,81.3,98.5,81.3z"/>
	<path fill="#148D98" d="M99.7,57.8c0,0.1-0.1,0.1-0.1,0.2c0,0,0-0.2,0-0.2L99.7,57.8z"/>
	<path fill="#148D98" d="M144.9,87c-0.1-0.1-0.2-0.1-0.2-0.2C144.7,86.9,144.8,87,144.9,87z"/>
	<polygon fill="#148D98" points="99.9,57.4 100,57.5 99.9,57.5 99.9,57.4 	"/>
	<polygon fill="#148D98" points="100.4,56.7 100.4,56.9 100.3,56.9 100.3,56.7 	"/>
</g>
</svg>
