<?xml version="1.0" encoding="utf-8"?>
<!-- Generator: Adobe Illustrator 19.2.1, SVG Export Plug-In . SVG Version: 6.00 Build 0)  -->
<svg version="1.1" id="Livello_1" xmlns="http://www.w3.org/2000/svg" xmlns:xlink="http://www.w3.org/1999/xlink" x="0px" y="0px"
	 viewBox="0 0 441 50" style="enable-background:new 0 0 441 50;" xml:space="preserve">
<style type="text/css">
	.st0{fill:#007B43;}
	.st1{fill:#E5BB11;}
	.st2{fill:#0067A0;}
	.st3{fill:#E88B38;}
</style>
<g>
	<path class="st0" d="M369.3,6.5c-12.8,0-17.6,10.3-17.6,18.3c0,8.3,4.9,18.3,17.1,18.3c10.8,0,17.6-8.4,17.6-19.1
		C386.5,13.3,379.9,6.5,369.3,6.5 M370.5,40.6c-7.8,0-12.4-7.6-12.4-17.2c0-11.5,5.3-14.4,9.9-14.4c6.6,0,11.8,6.4,11.8,16.8
		C379.9,39,373.4,40.6,370.5,40.6z"/>
	<path class="st0" d="M236.5,43.1c2.8,0,5.8-0.4,8.5-1.9c3.8-2.2,4.9-5.4,4.8-8.1c-0.1-4.4-2.6-7.6-9.1-11.9l-1.5-1
		c-4.5-2.9-5.8-4.6-5.9-6.7c-0.1-2.8,2.3-4.8,6.2-4.8c3.5,0,5.1,1.4,5.9,2.3c1.2,1.2,1.5,2.7,1.5,3.1c0,0.6,0.2,0.8,0.6,0.8
		c0.4,0,0.6-0.4,0.5-1.4c-0.1-3.6,0.1-5,0-5.6c0-0.3-0.3-0.5-0.8-0.6c-1.4-0.3-3.7-0.8-7.1-0.8c-7.4,0-12.2,3.7-12.1,8.8
		c0.1,3.8,2.2,7,8.2,11.1l2.5,1.7c4.5,3,5.4,5.2,5.5,7.5c0.1,2.5-2.2,5.3-7,5.3c-3.3,0-6.5-1.3-7.8-4.7c-0.3-0.8-0.5-1.8-0.6-2.4
		c0-0.4-0.1-0.8-0.6-0.8c-0.4,0-0.6,0.5-0.6,1.2c0,0.7-0.2,3.6-0.1,6.1c0,1,0.2,1.3,1.1,1.6C230.9,42.8,233.3,43.1,236.5,43.1"/>
	<path class="st0" d="M353.1,41.2c-0.6,0-1.2,0-1.9-0.2c-0.9-0.2-1.7-1.2-2.1-5.4c-0.7-7-1.9-25.8-2.1-28.3c-0.1-0.8-0.9-1-1.5-0.6
		c-0.4,0.3-0.9,1.1-1.5,1.8c-8.3,11.3-12.8,17.4-21.2,28.7c-1.5,2-2.7,4.1-5.5,4c-1.2-0.1-1.7-1.2-1.8-2.5c-0.2-2-0.2-5.6-0.2-9.8
		V10.6c0-0.5,0.1-0.8,0.4-0.9c0.4-0.1,1.1-0.2,1.8-0.2c1.1,0,3.7,0.1,5.4,1.6c2.6,2.3,2.5,5.4,2.5,6.9c0,4.7-3.7,7.7-6.3,7.7
		c-1,0-1.8,0.1-1.8,0.5c0,0.3,0.3,0.4,0.6,0.4c0.2,0,2.2,0.1,2.4,0.1c6.5,0,11.2-3.9,11.3-11.1c0-2.4-1.3-4.5-2.3-5.5
		c-1.3-1.3-4.3-2.7-10-2.7c-2.1,0-4.8,0.1-6.7,0.1c-1.1,0-7.5-0.3-7.8-0.3c-1.6,0-3.1,0.1-4,0.1c-0.9,0-2.8-0.1-5-0.1
		c-0.6,0-1.1,0-1.1,0.4c0,0.3,0.2,0.4,0.7,0.4c0.6,0,1.6,0,2.2,0.3c1,0.5,1.4,1.3,1.4,4.1l0.1,17.9c-0.7-0.7-21-23.3-21.7-23.7
		c-0.8-0.6-1.6,0-1.6,0.7l-0.8,23.1c-7.2-9-18.7-23.2-19-23.7c-0.5-0.7-1.6-0.5-1.7,0.5c-0.1,1.3-2.1,29.8-2.1,29.8
		c-0.1,2.3-0.4,3.8-2.4,4.1c-0.4,0.1-1,0.1-1.4,0.1c-0.4,0-0.5,0.1-0.4,0.4c0.1,0.4,0.5,0.5,1.1,0.5c2.4,0,4.9-0.1,5.4-0.1
		c1.4,0,3.5,0.1,5,0.1c0.5,0,0.8-0.1,0.6-0.5c-0.1-0.3-0.3-0.4-0.8-0.4h-0.7c-1.4,0-2.1-0.6-2.4-1.4c-0.2-0.5-0.4-1.6-0.3-2.8
		l0.1-6.5c0-0.3,0-0.4,0.3-0.4h9.9c0.2,0,0.4,0.1,0.6,0.3l7.4,9c0.2,0.2,0.3,0.7-0.1,1c-0.1,0.1-0.3,0.2-0.5,0.3
		c-0.6,0.2-1.5,0.1-2,0.1c-0.4,0-0.4,0.3-0.4,0.5c0,0.4,0.4,0.5,0.9,0.5c2.1,0,4.1,0,4.4,0l4.4,0c1.4,0,2.8,0.1,3.6,0.1
		c1.8,0,2.1-0.1,2-0.5c-0.1-0.3,0-0.5-0.4-0.5c-0.6,0-0.6,0-1.4-0.1c-1.1-0.2-2.3-1.5-5.6-5.6l-0.7-0.9L278.2,18
		c0.7,0.9,19.1,20.9,21.7,23.6c0.5,0.5,0.9,1,1.4,1c0.4,0,0.5-0.4,0.5-1.4l0.5-29c0-2.6,0.3-3.6,1.5-3.9c0.4-0.1,1.6-0.1,2.5,0.1
		c1.5,0.3,1.9,1.1,2,2.6c0.1,1.5,0.1,2.8,0.1,9.7l0,8.1c0,4.2,0,7.9-0.2,9.8c-0.2,1.3-0.4,2.3-1.3,2.5c-0.4,0.1-1,0.2-1.7,0.2
		c-0.5,0-0.7,0.1-0.7,0.4c0,0.3,0.3,0.5,0.9,0.5c1.8,0,6.1-0.2,6.3-0.2c4.2,0.2,7.9,0.2,10,0.1c1.7-0.1,4.2,0.2,4.8,0.2
		c0.5,0,0.9-0.1,0.9-0.5c0-0.2-0.1-0.4-0.6-0.4h-0.7c-1.4,0-1.3-0.6-0.8-1.4l6.5-9.4c0.2-0.3,0.3-0.4,0.5-0.4l9.2,0
		c0.2,0,0.3,0.1,0.4,0.3l0.4,9.6c0,0.6-0.4,1-0.8,1.1c-0.5,0-0.8,0.1-0.8,0.5c0,0.4,0.4,0.4,1.2,0.4c1.7,0,3-0.1,4.8-0.1
		c1.7,0,3.4,0.2,4.3,0.2c1.7,0,2.3-0.2,2.4-0.6C353.7,41.4,353.4,41.2,353.1,41.2 M264.4,28.1h-8c-0.2,0-0.3-0.1-0.3-0.3l0.3-9.2
		c0-0.2,0-0.4,0.1-0.4c0.1,0,0.2,0.1,0.3,0.3c0.4,0.5,7.6,9.4,7.6,9.4C264.6,28,264.6,28.1,264.4,28.1z M341.5,28.1l-7.5,0
		c-0.1,0-0.2-0.1-0.1-0.3c0.7-1,5.2-7.5,7.1-10.2c0.1-0.2,0.3-0.1,0.3,0.1c0.1,1.4,0.5,10.2,0.5,10.2
		C341.9,28,341.8,28.1,341.5,28.1z"/>
	<path class="st0" d="M423.6,6.5c-12.7,0-17.6,10.3-17.6,18.3c0,3.9,1.1,8.1,3.5,11.5c-0.2,0.8-0.7,1.8-1.1,2.3
		c-1.1,1.2-4,1.3-6.5,1.3c-3.6,0-3.8-0.3-4.6-1c-1-0.8-1-4-1-9.9v-8.1c0-7,0-8.3,0.1-9.7c0.1-1.6,0.5-2.4,1.7-2.6
		c0.6-0.1,1.3-0.1,1.8-0.1c0.5,0,0.8-0.1,0.8-0.4c0-0.3-0.3-0.4-1-0.4c-1.8,0-6.2,0.1-7.3,0.1c-1.2,0-4.3-0.1-6.4-0.1
		c-0.7,0-1,0.1-1,0.4c0,0.3,0.3,0.4,0.8,0.4c0.6,0,1.2,0,1.5,0.1c1.5,0.3,1.9,1.1,2,2.6c0.1,1.5,0.1,2.8,0.1,9.7V29
		c0,4.2,0,7.9-0.2,9.8c-0.2,1.3-0.4,2.3-1.3,2.5c-0.4,0.1-1,0.2-1.7,0.2c-0.5,0-0.7,0.1-0.7,0.4c0,0.3,0.3,0.5,0.9,0.5
		c1.8,0,4.8-0.1,5.9-0.1c3.7,0,7.9,0.3,14.5,0.3c2.4,0,2.6-0.2,2.9-1.2c0.2-0.8,0.4-2.5,0.6-3.8c2.8,3.3,6.9,5.6,12.8,5.6
		c10.8,0,17.6-8.4,17.6-19.1C440.8,13.3,434.2,6.5,423.6,6.5 M424.9,40.6c-7.8,0-12.4-7.6-12.4-17.2c0-11.5,5.3-14.4,9.9-14.4
		c6.6,0,11.8,6.4,11.8,16.8C434.2,39,427.7,40.6,424.9,40.6z"/>
	<path class="st0" d="M147.1,41.9c-0.6,0-1.2,0-1.9-0.2c-0.9-0.2-1.7-1.2-2.1-5.4c-0.7-7-1.9-25.8-2.1-28.3c-0.1-0.8-0.9-1-1.5-0.6
		c-0.4,0.3-0.9,1.1-1.5,1.8c-6.4,8.7-10.5,14.3-16,21.6c-0.8-3.3-3.4-6.1-8.8-9.7l-1.5-1c-4.5-2.9-5.8-4.6-5.9-6.7
		c-0.1-2.8,2.3-4.8,6.2-4.8c3.5,0,5.1,1.4,5.9,2.3c1.2,1.2,1.5,2.7,1.5,3.1c0,0.6,0.2,0.8,0.6,0.8c0.4,0,0.6-0.4,0.5-1.4
		c-0.1-3.6,0.1-5,0-5.6c0-0.3-0.3-0.5-0.8-0.6c-1.4-0.3-3.7-0.8-7.1-0.8c-7.4,0-12.2,3.7-12.1,8.8c0.1,3.8,2.2,7,8.2,11.1l2.5,1.7
		c4.5,3,5.4,5.2,5.5,7.5c0.1,2.5-2.2,5.3-7,5.3c-3.3,0-6.5-1.3-7.8-4.7c-0.3-0.8-0.5-1.8-0.6-2.4c0-0.4-0.1-0.8-0.6-0.8
		c-0.4,0-0.5,0.5-0.6,1.2c-0.1,0.4-0.2,1.5-0.3,1.8c-0.3,1.9-0.9,2.9-2.1,3.4C96.7,40,94.8,40,93.6,40c-4.7,0-8.2-0.7-8.3-3.9
		c0-1.3,0-5.6,0-7.2v-3.7c0-0.3,0-0.5,0.3-0.5c1.1,0,7.7,0,8.6,0.1c1.7,0.2,2.4,0.9,2.6,1.8c0.1,0.6,0.1,1.2,0.2,1.7
		c0,0.2,0.1,0.4,0.4,0.4c0.4,0,0.4-0.5,0.4-0.9c0-0.3,0.1-2.2,0.2-3.1c0.1-2.4,0.4-3.1,0.4-3.4c0-0.3-0.1-0.4-0.3-0.4
		c-0.2,0-0.4,0.2-0.7,0.6c-0.4,0.5-1.1,0.6-2.2,0.7c-1.1,0.1-8.4,0.1-9.4,0.1c-0.3,0-0.3-0.2-0.3-0.5V10.2c0-0.3,0.1-0.5,0.3-0.5
		c0.9,0,7.8,0.1,8.6,0.2c2.3,0.3,2.8,0.8,3.1,1.7c0.2,0.6,0.3,1.3,0.3,1.7c0,0.4,0.1,0.6,0.4,0.6c0.3,0,0.4-0.3,0.5-0.5
		c0.1-0.6,0.2-2.6,0.2-3.1c0.1-2.1,0.4-2.7,0.4-3c0-0.2,0-0.4-0.3-0.4c-0.2,0-0.5,0.1-0.7,0.2c-0.4,0.1-1.1,0.2-2,0.3
		c-0.9,0.1-12.1,0.1-13.6,0.1c-0.7,0-1.7-0.1-2.9-0.1c-1,0-2,0-3.1,0c0-0.2-0.1-0.3-0.3-0.3c-0.4,0-1.5,0.5-4.4,0.5H56.1
		c-1.5,0-3.3-0.1-4.6-0.2c-1.2-0.1-1.6-0.4-2-0.4c-0.3,0-0.4,0.1-0.5,0.6h-0.5c-0.6,0-1.2,0-1.8,0c-1,0-1.8,0.1-2.4,0.1
		c-0.9,0-2.8-0.1-4.8-0.1c-0.6,0-1.1,0-1.1,0.4c0,0.3,0.2,0.4,0.7,0.4c0.6,0,1.6,0,2.2,0.3c0.9,0.4,1.3,1.1,1.4,3.3l0.1,18.7
		c-0.7-0.7-21-23.3-21.5-23.7c-0.8-0.6-1.6,0-1.6,0.7l-0.4,12.1l-0.6,16c0,4-0.8,4.8-1.9,5.4c-0.5,0.3-1.3,0.4-1.9,0.5
		c-0.2,0-2.1,0.1-2.9-0.1c-1.2-0.3-2-1.1-2.1-2.4c-0.2-2-0.2-5.6-0.2-10.1v-8.1c0-7,0-8.3,0.1-9.8c0.1-1.6,0.5-2.4,1.7-2.6
		c0.5-0.1,0.9-0.1,1.4-0.1c0.5,0,0.7-0.1,0.7-0.5c0-0.3-0.4-0.4-1-0.4c-1.7,0-4.4,0.1-5.6,0.1c-1.3,0-4.2-0.1-6-0.1
		C0.4,7.4,0,7.5,0,7.8c0,0.4,0.3,0.5,0.7,0.5c0.5,0,1.1,0,1.7,0.2c1,0.2,1.5,1,1.6,2.6C4,12.5,4,13.7,4,20.7v8.1c0,4.5,0,8.1-0.2,10
		c-0.1,1.3-0.4,2.1-1.3,2.3c-0.4,0.1-1,0.2-1.6,0.2c-0.6,0-0.7,0.1-0.7,0.4c0,0.3,0.3,0.5,0.9,0.5c1.8,0,4.7-0.1,5.8-0.1
		c1.2,0,8.1,0.1,8.3,0.1c2.4,0,4.8-0.1,5.2-0.1c0.9,0,2.7,0.1,5.7,0.1c0.6,0,1.1-0.1,1.1-0.5c0-0.3-0.3-0.4-0.8-0.4
		c-0.7,0-1.6,0-2.4-0.3c-0.9-0.3-1.5-1.5-1.6-5.1l-0.2-9L22,18c0.7,0.9,19,20.9,21.6,23.6c0.5,0.5,0.9,1,1.4,1
		c0.4,0,0.5-0.4,0.5-1.4l0.5-29c0-0.4,0-0.7,0-1c0.1-1.7,0.5-2.4,1.3-2.8c0.4-0.2,1-0.2,1.6-0.3c0,1.3,0,4,0,4.6
		c0,0.5,0.1,0.7,0.4,0.7c0.3,0,0.4-0.2,0.5-0.6c0.1-0.4,0.3-0.9,0.8-1.6c0.7-1,1.8-1.2,4.5-1.3l4.6-0.2v19c0,4.3,0,7.9-0.2,9.8
		c-0.1,1.3-0.7,2.4-1.6,2.5c-0.4,0.1-1.9,0.2-2.6,0.2c-0.6,0-0.7,0.1-0.7,0.4c0,0.3,0.3,0.5,0.9,0.5c1.8,0,5.9-0.1,7-0.1
		c1.3,0,4.2,0.1,7.2,0.1c0.5,0,0.9-0.1,0.9-0.5c0-0.2-0.2-0.4-0.7-0.4c-0.7,0-1.7-0.1-2.3-0.2c-1.4-0.2-1.7-1.2-1.8-2.5
		c-0.2-2-0.2-5.6-0.2-9.9v-19l4.5,0.1c4.1,0.1,5.5,1.4,5.6,2.6l0,0.5c0.1,0.7,0.1,0.9,0.5,0.9c0.3,0,0.4-0.3,0.4-0.7
		c0-1.1,0-4,0-5.1c0.3,0,0.7,0.1,0.9,0.1c1.5,0.3,1.9,1.1,2,2.6c0.1,1.5,0.1,2.8,0.1,9.8v8.2c0,4.3,0,7.9-0.2,9.9
		c-0.2,1.3-0.4,2.4-1.3,2.6c-0.4,0.1-1,0.2-1.7,0.2c-0.6,0-0.7,0.1-0.7,0.4c0,0.3,0.3,0.5,0.9,0.5c0.9,0,2.1,0,3.2-0.1
		c1.1,0,2.1,0,2.6,0c1.4,0,2.8,0,4.8,0.1c2,0,7.2,0.1,10.7,0.1c1.8,0,2.2,0,2.5-1.2c0,0,0-0.1,0-0.2c0.1,0.3,0.4,0.5,0.9,0.7
		c2.3,0.9,4.7,1.2,7.8,1.2c1,0,2.1-0.1,3.1-0.2c1.4,0,2.5,0,3.4,0c1.7-0.1,4.2,0,4.8,0c0.5,0,0.9,0.1,0.9-0.3c0-0.2-0.1-0.4-0.6-0.4
		h-0.7c-1.4,0-1.3-0.6-0.8-1.4l6.5-9.4c0.2-0.3,0.3-0.4,0.5-0.4l9.2,0c0.2,0,0.3,0.1,0.4,0.3l0.4,9.6c0,0.6-0.4,1-0.8,1.1
		c-0.5,0-0.8,0.1-0.8,0.5c0,0.4,0.4,0.4,1.3,0.4c1.7,0,2.9-0.1,4.8-0.1c1.7,0,3.4,0.2,4.3,0.2c1.7,0,2.3-0.2,2.4-0.6
		C147.7,42,147.4,41.9,147.1,41.9 M135.5,28.7l-7.5,0c-0.1,0-0.2-0.1-0.1-0.3c0.7-1,5.2-7.4,7.1-10.2c0.1-0.2,0.3-0.1,0.3,0.1
		c0.1,1.4,0.5,10.2,0.5,10.2C135.8,28.6,135.7,28.7,135.5,28.7z"/>
	<path class="st1" d="M207.4,14L207.4,14L207.4,14c-0.3-0.2-0.8-0.3-1.1-0.2c-2-0.2-3.8-0.2-5.8-0.1h-0.1l-0.1,0c-1,0-2,0-3,0
		c-8.3-0.2-8.3-0.2-8.3-0.2c-1.9-0.1-4.1,0-6.2,0c-1.5,0-3,0.1-4.6,0.1c-1.6,0-5.4,0.1-7.7,0.1c-1.2,0-1.8,0-1.9,0
		c-0.3,0-0.6,0.4-0.6,0.7c0,0.2,0.1,0.4,0.4,0.4c0.2,0,1.6,0,4.1,0l2.5,0c0.7,0,1,0,1.1,0h0c1.9-0.2,3.8-0.2,5.6-0.2h0.1
		c1.2,0,2.4,0,3.6,0c0.3,0.1,0.5,0,0.8,0l0,0c0.1,0,0.2,0,0.4-0.1c0.3,0.1,0.6,0.1,0.9,0.1c0.3,0,0.7,0,1,0.1l0,0l0.1,0v0
		c0.3-0.1,0.5,0,0.8,0c0,0,0,0,0,0c0.1,0,0.2,0,0.3,0c2.4-0.1,5,0,8.3,0.3c0,0,1.5,0.2,1.5,0.2v0v0h0c1.4-0.1,2.8,0,4.2,0.1
		c0,0,0,0,0,0c1,0.1,2,0.1,3,0.1l0,0l0.1,0l0,0l0.5-0.4l0,0l0,0l0,0C207.7,14.6,207.7,14.2,207.4,14"/>
	<path class="st0" d="M193.7,31.6L193.7,31.6l0-0.1l0-3.2v0l0,0c-0.1-0.5-0.1-1-0.1-1.6c0-0.6,0-1.3-0.1-1.9c0-0.8-0.2-1.7-0.3-2.6
		l-0.1-0.6l0-0.1l0,0c-0.1-0.1-0.2-0.3-0.2-0.5c0-0.2-0.1-0.3-0.2-0.5c-0.2-0.4-0.6-0.8-0.9-1.1l0,0c-0.1-0.1-0.2-0.2-0.2-0.2
		c0,0-0.1-0.1-0.1-0.1l-0.1-0.1l0,0l-0.1,0c-0.3-0.2-0.5-0.3-0.8-0.4l0,0c-0.1-0.1-0.2-0.1-0.4-0.1v-0.1l-0.2,0l-0.7-0.1l-0.1,0
		l-0.1,0.1c0,0,0,0-0.2,0c-0.1,0-0.1-0.1-0.2-0.1l-0.1,0l0,0c0,0,0,0-0.1-0.1l-0.3-0.1l0,0.1c-0.1,0-0.2,0-0.3,0.1h-0.5l-0.4,0
		l0,0.2l0,0c-0.2-0.1-0.3,0.1-0.4,0.1c0,0,0,0,0,0c-0.2,0-0.2,0.1-0.3,0.1c0,0-0.1,0-0.1,0.1l-0.1,0l0,0.1c-0.1,0.1-0.3,0.2-0.4,0.2
		l-0.2,0.1l0.1,0.1c0,0-0.1,0-0.1,0.1h-0.2v0.2c0,0,0,0,0,0l-0.1-0.1c0,0-0.1,0.1-0.1,0.1c-0.1,0.2-0.3,0.4-0.5,0.6
		c-0.2,0.2-0.5,0.5-0.6,0.8l-0.1,0.1l0,0.1c0,0-0.2,0.1-0.2,0.2c-0.1,0.1-0.1,0.2-0.1,0.3c0,0,0,0.1,0,0.1c-0.1,0.1-0.1,0.2-0.1,0.3
		c0,0.1,0,0.1,0,0.1l-0.1,0.1l0.1,0c0,0.1,0,0.2,0,0.2c0,0,0,0.1,0,0.1l-0.1,0l0,0.1c0,0.2,0,0.4,0,0.7c0,0.2-0.1,0.4,0,0.7
		c-0.1,0.1-0.1,0.3-0.1,0.4c0,0,0,0.1,0,0.1l-0.1,0.1l0.1,0.1c0.1,0.1,0,0.3,0,0.4c0,0.2-0.1,0.3,0,0.5c0,0,0,0,0,0c0,0,0,0.1,0,0.1
		c0,0.1,0,0.2,0,0.2l-0.1,0.2l0,0.1l0.2,0.1c0,0.1,0,0.2,0,0.3c0,0.1,0,0.2,0,0.2l-0.1,0.2l0.1,0.1c0,0,0,0,0,0c0,0.1,0,0.2,0.1,0.3
		c0,0,0,0,0,0.1l-0.2,0l0.1,0.2c0,0,0,0,0,0.1c0,0.1,0,0.2,0,0.3c-0.1,0.1,0,0.3,0,0.4c0,0,0,0.1,0,0.1c-0.2,0.2-0.1,0.4,0,0.5
		c-0.1,0.1-0.1,0.3,0,0.3l-0.2,0.1l0.2,0.2c0,0,0,0.1,0,0.2c0,0,0.1,0.1,0.1,0.1l-0.1,0c0,0,0,0,0,0l0,0l0.1,0.2l0,0
		c0,0.1,0,0.2,0.1,0.3c0,0,0,0.1,0,0.1l-0.1,0.1l0.1,0.1c0.1,0.1,0,0.2,0,0.4c0,0.2-0.1,0.4,0,0.6l-0.1,0.1l0.2,0.1c0,0,0,0,0,0
		c0,0.1-0.1,0.2,0,0.4l0,0c0,0.1,0,0.2,0,0.3c0,0.2,0,0.4,0,0.6l0,0.2l0,0c0,0.1,0,0.2,0,0.2l-0.1,0l0,0.2c0,0.2,0.1,0.3,0.1,0.6
		c0,0.4,0,0.8,0.4,1.2l0.1,0.1l0.1,0c0.3-0.1,0.3-0.3,0.3-0.5c0,0,0-0.1,0-0.1l0,0l0,0c-0.1-0.4-0.1-0.8,0-1.2c0-0.1,0-0.2,0-0.3
		l0,0l0,0c-0.1-0.1-0.1-0.3,0-0.4c0-0.1,0-0.3,0-0.5c0.1-0.8,0-1.7,0-2.4c0-0.3,0-0.6,0-0.9v0v0c0-0.4,0-0.8,0-1.2c0-0.3,0-0.7,0-1
		c0.1-0.4,0.1-0.7,0.1-1.1c0-0.2,0-0.3,0-0.5l0,0l0,0c0.1-0.1,0.1-0.2,0.1-0.3c0-0.1,0-0.3,0-0.4c0-0.1,0-0.2,0-0.3l0,0l0,0
		c0-0.1,0-0.2,0-0.3c0-0.1,0.1-0.3,0-0.4c0.1-0.3,0.2-0.6,0.2-1l0-0.1c0-0.1,0-0.1-0.1-0.2c0,0,0,0,0,0c0-0.1,0.1-0.3,0.2-0.4
		c0.1-0.2,0.2-0.4,0.3-0.6l0,0l0,0c0,0,0,0,0,0c0.1-0.1,0.2-0.1,0.2-0.3c0,0,0,0,0-0.1c0.1-0.1,0.2-0.2,0.3-0.4
		c0.1-0.2,0.2-0.3,0.4-0.4l0.1,0l0-0.1c0-0.1,0.1-0.2,0.3-0.3c0.1-0.1,0.2-0.2,0.3-0.3c0.1,0,0.2,0,0.3-0.1c0.2,0,0.3-0.1,0.4-0.2
		c0.2-0.1,0.2-0.2,0.3-0.1l0.1,0l0.1-0.1c0,0,0,0,0,0c0.1,0,0.1,0,0.2-0.1c0,0,0.1,0,0.1,0c0.1,0,0.1,0,0.1,0c0,0,0.1,0,0.2,0l0,0
		l0.1,0l0.2,0c0.5-0.1,1-0.1,1.4,0.1l0.1,0.1l0.1-0.1c0,0,0,0,0.1,0.1c0.1,0.1,0.3,0.3,0.5,0.3c0.1,0.1,0.1,0.1,0.2,0.1
		c0,0,0.1,0,0.1,0v0l0,0c0.1,0.1,0.3,0.2,0.4,0.2c0.3,0.3,0.6,0.8,0.6,0.9v0.2h0.1c0,0,0,0,0,0c0.1,0.2,0.1,0.5,0.3,0.7
		c-0.1,0.1,0,0.3,0,0.3c0,0,0,0,0,0.1l0,0.1l0.1,0.1l0,0c0,0.1,0,0.2,0.1,0.3c0,0,0,0,0,0.1l0,0.1c-0.2,0.3,0.1,0.5,0.2,0.6
		c0,0,0,0,0,0c-0.1,0.1-0.1,0.1-0.1,0.2l0,0.1l0.1,0.1c0,0,0,0,0,0c0,0,0,0,0,0c0,0,0,0.1,0,0.1l-0.1,0.1l0,0.2l0.1,0.1l0.1,0
		c0,0.1,0,0.1,0,0.2c0,0,0,0,0,0l0,0.1c-0.1,0.3-0.1,0.7,0,1c0,0,0,0,0,0c-0.1,0.1-0.1,0.2,0,0.3c0,0,0,0.1,0,0.1l0,0.2
		c0,0,0.1,0,0.1,0c0,0,0,0,0,0.1l0,0.2h0.1c0,0.1,0,0.1,0,0.2c0,0.1,0,0.2,0,0.2l0,0l0,0c-0.1,0.2,0,0.4,0.1,0.5c0,0,0,0.1,0,0.1
		c0,0-0.1,0.1-0.1,0.2c0,0,0,0,0,0l0,0l0,0.1c0,0.1,0.1,0.1,0.1,0.1l0,0c0,0,0,0.1,0,0.1v0l-0.1,0l0.1,0.1c0,0.1-0.1,0.1,0,0.2
		l-0.1,0.1c0,0,0,0.1,0.1,0.1c-0.1,0.2,0.1,0.4,0.2,0.5c0,0,0.1,0.1,0.1,0.1h-0.1l0.1,0.2v0c0,0,0,0,0,0.1l-0.2,0.1l0,0.2l0,0.1
		c0,0.1,0,0.2,0,0.2c0,0,0,0,0,0c-0.1,0.1-0.1,0.1-0.1,0.2l0,0.2l0.1,0c0,0,0,0.1,0,0.1c0,0.1,0,0.1-0.1,0.2v0c0,0,0,0,0,0l0.2,0.1
		c0,0.1-0.1,0.1-0.1,0.2c0,0,0,0.1,0,0.1c0,0,0,0,0,0l-0.2,0l0,0.2c0,0,0,0.1,0,0.1c0,0,0,0.1,0,0.1v0.2c0,0,0,0.1,0,0.1l0,0l0,0.1
		c0,0.1,0,0.1,0,0.2c0,0,0,0.1,0,0.1l-0.2,0.1l0.2,0.2l0,0c0,0.1-0.1,0.1-0.1,0.2h-0.1l0.2,0.3c0,0,0,0.1,0.1,0.1c0,0,0,0,0,0
		c-0.1,0.1-0.1,0.2-0.1,0.3c0,0,0,0.1,0,0.1c0,0,0,0,0,0l0.1,0.1c0,0-0.1,0.1-0.1,0.1c0,0.1,0,0.1,0,0.2h-0.2l0.2,0.2l-0.2,0.1
		l0.2,0.1v0.5c0,0.1,0,0.2,0.1,0.2c0,0,0,0,0,0c0.1,0.1,0.2,0.1,0.3,0v0.2L193,36c0.2-0.1,0.3-0.1,0.4,0l0.2,0l0-0.2
		c0.1-0.7,0.1-1.4,0.1-2.1c0-0.7,0-1.3,0-1.9C193.8,31.8,193.8,31.6,193.7,31.6"/>
	<path class="st2" d="M180,31.6L180,31.6l0-0.1l0-3.2v0v0c-0.1-0.5-0.1-1-0.1-1.6c0-0.6,0-1.3-0.1-1.9c0-0.8-0.2-1.7-0.3-2.6
		l-0.1-0.6l0-0.1l0,0c-0.1-0.1-0.2-0.3-0.2-0.5c0-0.2-0.1-0.3-0.2-0.5c-0.2-0.4-0.6-0.8-0.9-1.1l0,0c-0.1-0.1-0.2-0.2-0.2-0.2
		c0,0-0.1-0.1-0.1-0.1l-0.1-0.1l0,0l-0.1,0c-0.3-0.2-0.5-0.3-0.8-0.4l0,0c-0.1-0.1-0.2-0.1-0.4-0.1v-0.1l-0.2,0l-0.7-0.1l-0.1,0
		l-0.1,0.1c0,0,0,0-0.2,0c-0.1,0-0.1-0.1-0.2-0.1l-0.1,0l0,0c0,0,0,0-0.1-0.1l-0.3-0.1l0,0.1c-0.1,0-0.2,0-0.3,0.1h-0.5l-0.4,0
		l0,0.2l0,0c-0.2-0.1-0.3,0.1-0.4,0.1c0,0,0,0,0,0c-0.2,0-0.2,0.1-0.3,0.1c0,0-0.1,0-0.1,0.1l-0.1,0l0,0.1c-0.1,0.1-0.3,0.2-0.4,0.2
		l-0.2,0.1l0.1,0.1c0,0-0.1,0-0.1,0.1h-0.2v0.2c0,0,0,0,0,0l-0.1-0.1c0,0-0.1,0.1-0.1,0.1c-0.1,0.2-0.3,0.4-0.5,0.6
		c-0.2,0.2-0.5,0.5-0.6,0.8l-0.1,0.1l0,0.1c0,0-0.2,0.1-0.2,0.2c-0.1,0.1-0.1,0.2-0.1,0.3c0,0,0,0.1,0,0.1c-0.1,0.1-0.1,0.2-0.1,0.3
		c0,0.1,0,0.1,0,0.1l-0.1,0.1l0.1,0c0,0.1,0,0.2,0,0.2c0,0,0,0.1,0,0.1l-0.1,0l0,0.1c0,0.2,0,0.4,0,0.7c0,0.2-0.1,0.4,0,0.7
		c-0.1,0.1-0.1,0.3-0.1,0.4c0,0,0,0.1,0,0.1l-0.1,0.1l0.1,0.1c0.1,0.1,0,0.3,0,0.4c0,0.2-0.1,0.3,0,0.5c0,0,0,0,0,0c0,0,0,0.1,0,0.1
		c0,0.1,0,0.2,0,0.2l-0.1,0.2l0,0.1l0.2,0.1c0,0.1,0,0.2,0,0.3c0,0.1,0,0.2,0,0.2l-0.1,0.2l0.1,0.1c0,0,0,0,0,0c0,0.1,0,0.2,0.1,0.3
		c0,0,0,0,0,0.1l-0.2,0l0.1,0.2c0,0,0,0,0,0.1c0,0.1-0.1,0.2,0,0.3c-0.1,0.1,0,0.3,0,0.4c0,0,0,0.1,0,0.1c-0.2,0.2-0.1,0.4,0,0.5
		c-0.1,0.1-0.1,0.3,0,0.3l-0.2,0.1l0.2,0.2c0,0,0,0.1,0,0.2c0,0,0.1,0.1,0.1,0.1l-0.1,0c0,0,0,0,0,0h0l0.1,0.2l0,0
		c0,0.1,0,0.2,0.1,0.3c0,0,0,0.1,0,0.1l-0.1,0.1l0.1,0.1c0.1,0.1,0,0.2,0,0.4c0,0.2-0.1,0.4,0,0.6l-0.1,0.1l0.2,0.1c0,0,0,0,0,0
		c0,0.1-0.1,0.2,0,0.4l0,0c0,0.1,0,0.2,0,0.3c0,0.2,0,0.4,0,0.6l0,0.2l0,0c0,0.1,0,0.2,0,0.2l-0.1,0l0,0.2c0,0.2,0.1,0.3,0.1,0.6
		c0,0.4,0,0.8,0.4,1.2l0.1,0.1l0.1,0c0.3-0.1,0.3-0.3,0.3-0.5c0,0,0-0.1,0-0.1l0,0l0,0c-0.1-0.4-0.1-0.8,0-1.2c0-0.1,0-0.2,0-0.3
		l0,0l0,0c-0.1-0.1-0.1-0.3,0-0.4c0-0.1,0-0.3,0-0.5c0.1-0.8,0-1.7,0-2.4c0-0.3,0-0.6,0-0.9v0l0,0c0-0.4,0-0.8,0-1.2
		c0-0.3,0-0.7,0-1c0.1-0.4,0.1-0.7,0.1-1.1c0-0.2,0-0.3,0-0.5v0l0,0c0.1-0.1,0.1-0.2,0.1-0.3c0-0.1,0-0.3,0-0.4c0-0.1,0-0.2,0-0.3
		l0,0l0,0c0-0.1,0-0.2,0-0.3c0-0.1,0.1-0.3,0-0.4c0.1-0.3,0.2-0.6,0.2-1l0-0.1c0-0.1,0-0.1-0.1-0.2c0,0,0,0,0,0
		c0-0.1,0.1-0.3,0.2-0.4c0.1-0.2,0.2-0.4,0.3-0.6l0,0l0,0c0,0,0,0,0,0c0.1-0.1,0.2-0.1,0.2-0.3c0,0,0,0,0-0.1
		c0.1-0.1,0.2-0.2,0.3-0.4c0.1-0.2,0.2-0.3,0.4-0.4l0.1,0l0-0.1c0-0.1,0.1-0.2,0.3-0.3c0.1-0.1,0.2-0.2,0.3-0.3c0.1,0,0.2,0,0.3-0.1
		c0.2,0,0.3-0.1,0.4-0.2c0.2-0.1,0.2-0.2,0.3-0.1l0.1,0l0.1-0.1c0,0,0,0,0,0c0.1,0,0.1,0,0.2-0.1c0,0,0.1,0,0.1,0c0.1,0,0.1,0,0.1,0
		c0,0,0.1,0,0.2,0l0,0l0.1,0l0.2,0c0.5-0.1,1-0.1,1.4,0.1l0.1,0.1l0.1-0.1c0,0,0,0,0.1,0.1c0.1,0.1,0.3,0.3,0.5,0.3
		c0.1,0.1,0.1,0.1,0.2,0.1c0,0,0.1,0,0.1,0v0l0,0c0.1,0.1,0.3,0.2,0.4,0.2c0.3,0.3,0.6,0.8,0.6,0.9v0.2h0.1c0,0,0,0,0,0
		c0.1,0.2,0.1,0.5,0.3,0.7c-0.1,0.1,0,0.3,0,0.3c0,0,0,0,0,0.1l0,0.1l0.1,0.1l0,0c0,0.1,0,0.2,0.1,0.3c0,0,0,0,0,0.1l0,0.1
		c-0.2,0.3,0.1,0.5,0.2,0.6c0,0,0,0,0,0c-0.1,0.1-0.1,0.1-0.1,0.2l0,0.1l0.1,0.1c0,0,0,0,0,0c0,0,0,0,0,0c0,0,0,0.1,0,0.1l-0.1,0.1
		l0,0.2l0.1,0.1l0.1,0c0,0.1,0,0.1,0,0.2c0,0,0,0,0,0l0,0.1c-0.1,0.3-0.1,0.7,0,1c0,0,0,0,0,0c-0.1,0.1-0.1,0.2,0,0.3
		c0,0,0,0.1,0,0.1l0,0.2c0,0,0.1,0,0.1,0c0,0,0,0,0,0.1l0,0.2h0.1c0,0.1,0,0.1,0,0.2c0,0.1,0,0.2,0,0.2l0,0l0,0
		c-0.1,0.2,0,0.4,0.1,0.5c0,0,0,0.1,0,0.1c0,0-0.1,0.1-0.1,0.2c0,0,0,0,0,0l0,0l0,0.1c0,0.1,0.1,0.1,0.1,0.1l0,0c0,0,0,0.1,0,0.1v0
		l-0.1,0l0.1,0.1c0,0.1-0.1,0.1,0,0.2l-0.1,0.1c0,0,0,0.1,0.1,0.1c-0.1,0.2,0.1,0.4,0.2,0.5c0,0,0.1,0.1,0.1,0.1h-0.1L179,30l0,0
		c0,0,0,0,0,0.1l-0.1,0.1l0,0.2l0,0.1c0,0.1,0,0.2,0,0.2c0,0,0,0,0,0c-0.1,0.1-0.1,0.1-0.1,0.2l0,0.2l0.1,0c0,0,0,0.1,0,0.1
		c0,0.1,0,0.1-0.1,0.2l0,0c0,0,0,0,0,0l0.2,0.1c0,0.1-0.1,0.1-0.1,0.2c0,0,0,0.1,0,0.1c0,0,0,0,0,0l-0.2,0l0,0.2c0,0,0,0.1,0,0.1
		c0,0,0,0.1,0,0.1v0.2c0,0,0,0.1,0,0.1l0,0l0,0.1c0,0.1,0,0.1,0,0.2c0,0,0,0.1,0,0.1l-0.2,0.1l0.2,0.2c0,0,0,0,0,0
		c0,0.1,0,0.1,0,0.2h-0.1l0.2,0.3c0,0,0,0.1,0.1,0.1c0,0,0,0,0,0c-0.1,0.1-0.1,0.2-0.1,0.3c0,0,0,0.1,0,0.1c0,0,0,0,0,0l0.1,0.1
		c0,0-0.1,0.1-0.1,0.1c0,0.1,0,0.1,0,0.2h-0.2l0.2,0.2l-0.2,0.1l0.2,0.1v0.5c0,0.1,0,0.2,0.1,0.2c0,0,0,0,0,0c0.1,0.1,0.2,0.1,0.3,0
		v0.2l0.2-0.1c0.2-0.1,0.3-0.1,0.4,0l0.2,0l0-0.2c0.1-0.7,0.1-1.4,0.1-2.1c0-0.7,0-1.3,0.1-1.9C180.1,31.8,180,31.6,180,31.6"/>
	<path class="st3" d="M207.2,31.8L207.2,31.8l0-0.1l0-3.2v0v0c-0.1-0.5-0.1-1-0.1-1.6c0-0.6,0-1.3-0.1-1.9c0-0.8-0.2-1.7-0.3-2.6
		l-0.1-0.6l0-0.1l0,0c-0.1-0.1-0.2-0.3-0.2-0.5c0-0.2-0.1-0.3-0.2-0.5c-0.2-0.4-0.6-0.8-0.9-1.1l0,0c-0.1-0.1-0.2-0.2-0.2-0.2
		c0,0-0.1-0.1-0.1-0.1l-0.1-0.1l0,0l-0.1,0c-0.3-0.2-0.5-0.3-0.8-0.4l0,0c-0.1-0.1-0.2-0.1-0.4-0.1v-0.1l-0.2,0l-0.7-0.1l-0.1,0
		l-0.1,0.1c0,0,0,0-0.2,0c-0.1,0-0.1-0.1-0.2-0.1l-0.1,0l0,0c0,0,0,0-0.1,0l-0.3-0.1l0,0.1c-0.1,0-0.2,0-0.3,0.1h-0.5l-0.4,0
		l0.1,0.2c0,0,0,0,0,0c-0.2-0.1-0.3,0.1-0.4,0.1c0,0,0,0,0,0c-0.2,0-0.2,0.1-0.3,0.1c0,0-0.1,0-0.1,0l-0.1,0l0,0.1
		c-0.1,0.1-0.3,0.2-0.4,0.2l-0.2,0.1l0.1,0.1c0,0-0.1,0-0.1,0.1h-0.2v0.2c0,0,0,0,0,0l-0.1-0.1c0,0-0.1,0.1-0.1,0.1
		c-0.1,0.2-0.3,0.4-0.5,0.6c-0.2,0.2-0.5,0.5-0.6,0.8l-0.1,0.1l0,0.1c0,0-0.2,0.1-0.2,0.2c-0.1,0.1-0.1,0.2-0.1,0.3c0,0,0,0.1,0,0.1
		c-0.1,0.1-0.1,0.2-0.1,0.3c0,0.1,0,0.1,0,0.1l-0.1,0.1l0.1,0c0,0.1,0,0.2,0,0.2c0,0,0,0.1,0,0.1l-0.1,0l0,0.1c0,0.2,0,0.4,0,0.7
		c0,0.2-0.1,0.4,0,0.7c-0.1,0.1-0.1,0.3-0.1,0.4c0,0,0,0.1,0,0.1l-0.1,0.1l0.1,0.1c0.1,0.1,0,0.3,0,0.4c0,0.2-0.1,0.3,0,0.5
		c0,0,0,0,0,0c0,0,0,0.1,0,0.1c0,0.1,0,0.2,0,0.2l-0.1,0.2l0,0.1l0.2,0.1c0,0.1,0,0.2,0,0.3c0,0.1,0,0.2,0,0.2l-0.1,0.2l0.1,0.1
		c0,0,0,0,0,0c0,0.1,0,0.2,0.1,0.3c0,0,0,0,0,0.1l-0.2,0l0.1,0.2c0,0,0,0,0,0.1c0,0.1,0,0.2,0,0.3c-0.1,0.1,0,0.3,0,0.4
		c0,0,0,0.1,0,0.1c-0.2,0.2-0.1,0.4,0,0.5c-0.1,0.1-0.1,0.3,0,0.3l-0.2,0.1l0.2,0.2c0,0.1,0,0.1,0,0.2c0,0,0.1,0.1,0.1,0.1l-0.1,0
		c0,0,0,0,0,0h0l0.1,0.2l0,0c0,0.1,0,0.2,0.1,0.3c0,0,0,0.1,0,0.1l-0.1,0.1l0.1,0.1c0.1,0.1,0,0.2,0,0.4c0,0.2-0.1,0.4,0,0.6
		l-0.1,0.1l0.2,0.1c0,0,0,0,0,0c0,0.1-0.1,0.2,0,0.4l0,0c0,0.1,0,0.2,0,0.3c0,0.2,0,0.4,0,0.6l0,0.2l0,0c0,0.1,0,0.2,0,0.2l-0.1,0
		l0,0.1c0.1,0.2,0.1,0.4,0.1,0.6c0,0.4,0,0.8,0.4,1.2l0.1,0.1l0.1,0c0.3-0.1,0.3-0.3,0.3-0.5c0,0,0-0.1,0-0.1l0,0l0,0
		c-0.1-0.4-0.1-0.8,0-1.2c0-0.1,0-0.2,0-0.3l0-0.1l0,0c-0.1-0.1-0.1-0.3,0-0.5c0-0.1,0-0.3,0-0.5c0.1-0.8,0-1.6,0-2.4
		c0-0.3,0-0.7,0-0.9l0,0v0c0-0.4,0-0.8,0-1.2c0-0.3,0-0.7,0-1c0.1-0.4,0.1-0.7,0.1-1.1c0-0.2,0-0.3,0-0.5v0l0,0
		c0.1-0.1,0.1-0.2,0.1-0.3c0-0.1,0-0.3,0-0.4c0-0.1,0-0.2,0-0.3l0,0l0,0c0-0.1,0-0.2,0-0.3c0-0.1,0.1-0.3,0-0.4
		c0.1-0.3,0.2-0.6,0.2-1l0-0.1c0-0.1,0-0.1-0.1-0.2v0c0-0.1,0.1-0.3,0.2-0.4c0.1-0.2,0.2-0.4,0.3-0.6l0,0l0,0c0,0,0,0,0,0
		c0.1-0.1,0.2-0.1,0.2-0.3c0,0,0-0.1,0-0.1c0.1-0.1,0.2-0.2,0.3-0.4c0.1-0.2,0.2-0.3,0.4-0.3l0.1,0l0-0.1c0-0.1,0.1-0.2,0.3-0.3
		c0.1-0.1,0.2-0.2,0.3-0.3c0.1,0,0.2,0,0.3-0.1c0.2,0,0.3-0.1,0.4-0.2c0.2-0.1,0.2-0.2,0.3-0.1l0.1,0l0.1-0.1c0,0,0,0,0,0
		c0,0,0.1,0,0.2-0.1c0,0,0.1,0,0.1,0c0.1,0,0.1,0,0.1,0c0,0,0.1,0,0.2,0l0,0l0.1,0l0.2,0c0.5-0.1,1-0.1,1.4,0.1l0.1,0.1l0.1-0.1
		c0,0,0,0,0.1,0.1c0.1,0.1,0.3,0.3,0.5,0.3c0.1,0.1,0.1,0.1,0.2,0.1c0,0,0.1,0,0.1,0v0l0,0c0.1,0.1,0.3,0.2,0.4,0.2
		c0.3,0.3,0.6,0.8,0.6,0.9v0.2h0.1l0,0c0,0.2,0.1,0.5,0.3,0.7c-0.1,0.1,0,0.3,0,0.3c0,0,0,0,0,0.1l0,0.1l0.1,0.1l0,0
		c0,0.1,0.1,0.2,0.1,0.3c0,0,0,0,0,0.1l0,0.1c-0.2,0.3,0.1,0.5,0.2,0.6c0,0,0,0,0,0c-0.1,0.1-0.1,0.1-0.1,0.2l0,0.1l0.1,0.1l0,0
		c0,0,0,0,0,0c0,0,0,0.1,0,0.1l-0.1,0.1l0,0.2l0.1,0.1l0.1,0c0,0.1,0,0.1,0,0.2c0,0,0,0,0,0l0,0.1c-0.1,0.3-0.1,0.7,0,1c0,0,0,0,0,0
		c-0.1,0.1-0.1,0.2-0.1,0.3c0,0,0,0.1,0,0.1l0,0.2c0,0,0.1,0,0.1,0c0,0,0,0,0,0.1l0,0.2h0.1c0,0.1,0,0.1,0,0.2c0,0.1,0,0.2,0,0.2
		l0,0l0,0c-0.1,0.2,0,0.4,0.1,0.5c0,0,0,0.1,0,0.1c0,0-0.1,0.1-0.1,0.2c0,0,0,0,0,0l0,0l0,0.1c0,0.1,0.1,0.1,0.1,0.1l0,0
		c0,0,0,0.1,0,0.1v0.1l-0.1,0l0.1,0.1c0,0.1-0.1,0.1,0,0.2l-0.1,0.1c0,0,0,0.1,0.1,0.1c-0.1,0.2,0.1,0.4,0.2,0.5
		c0,0,0.1,0.1,0.1,0.1h-0.1l0.1,0.2l0,0c0,0,0,0,0,0.1l-0.1,0.1l0,0.2l0,0.1c0,0.1,0,0.2,0,0.2c0,0,0,0,0,0
		c-0.1,0.1-0.1,0.1-0.1,0.2l0,0.2l0.1,0c0,0,0,0.1,0,0.1c0,0.1,0,0.1-0.1,0.2h0c0,0,0,0,0,0l0.2,0.1c0,0.1-0.1,0.1-0.1,0.2
		c0,0,0,0.1,0,0.1c0,0,0,0,0,0l-0.2,0l0,0.2c0,0,0,0.1,0,0.1c0,0,0,0.1,0,0.1v0.2c0,0,0,0.1,0,0.1l0,0l0,0.1c0,0.1,0,0.1,0,0.2
		c0,0,0,0.1,0,0.1l-0.2,0.1l0.2,0.2c0,0,0,0,0,0c0,0.1,0,0.1,0,0.2h-0.1l0.2,0.3c0,0,0,0.1,0.1,0.1c0,0,0,0,0,0
		c-0.1,0.1-0.1,0.2-0.1,0.3c0,0,0,0.1,0,0.1v0l0.1,0.1c0,0-0.1,0.1-0.1,0.1c0,0.1,0,0.1,0,0.2h-0.2l0.2,0.2l-0.2,0.1l0.2,0.1v0.5
		c0,0.1,0,0.2,0.1,0.2c0,0,0,0,0,0c0.1,0.1,0.2,0.1,0.3,0v0.2l0.2-0.1c0.2-0.1,0.3-0.1,0.4,0l0.2,0l0-0.2c0.1-0.7,0.1-1.4,0.1-2.1
		c0-0.7,0-1.3,0-1.9C207.3,32,207.3,31.9,207.2,31.8"/>
	<path class="st3" d="M163.2,0 M212.7,0h-49.5v49.5h49.5L212.7,0z M163.2,0 M210,46.9h-44.3V2.6H210V46.9z M210,46.9"/>
</g>
</svg>
