<svg width="6587" height="4510" xmlns="http://www.w3.org/2000/svg">

 <g>
  <title>background</title>
  <rect fill="none" id="canvas_background" height="4512" width="6589" y="-1" x="-1"/>
 </g>
 <g>
  <title>Layer 1</title>
  <g id="svg_1" transform="translate(0,3688) scale(0.10000000149011612,-0.10000000149011612) ">
   <path id="svg_2" d="m47739.996,36109c-3055,-114.004 -5975,-1006.008 -8550,-2612c-2137,-1333 -3979.004,-3134.006 -5352,-5232.004c-265.996,-407 -678,-1097 -678,-1135c0,-7 49.004,-102.996 109.004,-214.004c828.996,-1536.992 1446.992,-3167.996 1795.996,-4740.996c25.996,-114.998 49.004,-219.002 52.004,-229.998c3.992,-12.002 25,55 55,169.998c532,2063 1492,3907.004 2872.996,5515c525,610.996 1209.004,1270.996 1830,1765c2124.004,1690.996 4649.004,2699.004 7325,2924.004c450.996,37.998 639.004,45 1170,45s724.004,-7.002 1170,-45c1440,-121.006 2879.004,-481.006 4205,-1052.002c2109.004,-907.998 3970.996,-2351.006 5382.004,-4169.002c1474.996,-1902.004 2414.996,-4138.996 2733.992,-6510l22.008,-167.998l1885,0l1885,0l-7.008,77.998c-11.992,136.006 -56,500 -86.992,717.002c-335,2352.998 -1142,4592.002 -2387,6619.998c-1041.008,1695.996 -2380.004,3214.004 -3937.004,4464.004c-3104.004,2493 -6940.996,3835 -10920,3818.992c-202.996,0 -461.992,-5 -575,-8.992z"/>
   <path id="svg_3" d="m15694.999,36084c-2429.003,-250 -4634.003,-937 -6719.003,-2092c-2118.994,-1173 -4000,-2810.002 -5463.994,-4754.004c-2121,-2818 -3315,-6157.004 -3472.002,-9707.998c-12.998,-290.996 -12.998,-1180 0,-1470c134,-3032.002 1016.002,-5892.002 2602.998,-8440c1687.002,-2707.998 4100,-4912.997 6939.004,-6339.999c1432.998,-720.996 2865.996,-1214.004 4432.998,-1525c522.997,-104.004 1292.001,-215.996 1732.997,-250.996l82.002,-7.002l0,1888.994l0,1889.004l-182.002,22.998c-2377.997,297.998 -4685.995,1260 -6599.999,2751.005c-727.998,565.996 -1397.002,1203.994 -1992.998,1900.996c-1622.002,1894.004 -2689.004,4185 -3089.004,6630c-37.998,230 -85.996,574.004 -85.996,615l0,25l5930,0l5929.999,0l0,1575l0,1575l-5929.999,0l-5930,0l0,25c0,44.004 49.004,395 90.996,644.004c352.002,2127.998 1209.004,4136.99 2504.004,5875.994c1064.004,1429.004 2390,2630.996 3922.002,3552.998c1577.002,950 3405.996,1589.004 5197.997,1817.002c115.996,15 215.996,29.004 222.998,30.996c9.004,3.008 12.002,390.006 12.002,1894.004c0,1039.004 -0.996,1889.004 -2.002,1889.004c-2.002,-1.008 -60.996,-7 -132.998,-15z" fill="#0089F3"/>
   <path id="svg_4" d="m18940,34166l0,-1885.008l42.996,-5.996c23,-2.998 128,-17.002 232.004,-30.996c795,-104.004 1657.996,-305 2449.004,-568.008c2706.99,-900.996 5072.996,-2640.996 6746.99,-4962.996c1151.006,-1597.004 1934.004,-3400 2313.008,-5327.998c51.992,-265.996 95.996,-532.998 125.996,-760c12.002,-87.998 22.998,-170 25.996,-182.002l4.004,-22.998l1885,0c1037.002,0 1884.998,2.998 1884.998,7.998c0,4.004 -14.004,129.004 -30,277.002c-512.996,4564.002 -2804.002,8717.002 -6404.998,11605.994c-2555.996,2052 -5665,3344.004 -8894.998,3699.004c-150.996,16 -299.004,32.004 -327.004,36l-52.996,5l0,-1884.996z"/>
   <path id="svg_5" d="m31085.994,17270.994c-2.998,-5 3.008,-100.996 14.004,-211.992c190,-1905 685.996,-3745 1477.002,-5479.004c120,-262.002 305,-640.996 310.996,-635c2.996,2.998 54.004,-87.998 114.004,-202.998c1000.996,-1901.006 2335,-3596.005 3938.992,-5002.001c2799.004,-2454.004 6260,-3930.996 9959.004,-4250c460.996,-39.004 732.004,-50.996 1310,-57.002c997.004,-10 1730,37.002 2655,167.998c3515.996,498.008 6772.004,2059.004 9400,4509.004c242,225.996 769.004,760 987,1000c2508.996,2770.996 4038.996,6189.003 4422.996,9882.002c14.008,132.002 25,247.002 25,253.994c0,12.002 -295.992,14.004 -1890,14.004l-1890,0l-4,-22.002c-2.992,-12.998 -15,-98.994 -26,-192.998c-11.992,-92.998 -36.992,-267.002 -55,-385c-270,-1717.002 -876.992,-3380 -1784.996,-4885c-442.996,-735 -921.992,-1380.996 -1539.004,-2075c-182.988,-205.996 -763.992,-790 -970.996,-975.996c-922.996,-831.005 -1875,-1490 -2941.992,-2038.007c-1351.004,-695 -2834.004,-1162.998 -4328.008,-1365c-124.004,-16.992 -241.992,-32.998 -261.992,-35.996l-38.008,-5l0,5849.999l0,5850l-1570,0l-1570,0l0,-5850.996l0,-5851.006l-51.992,7.002c-1626.004,204.004 -3048.008,632.002 -4468.008,1340.996c-1282.996,642.001 -2430,1463.007 -3459.004,2479.003c-852.996,842.002 -1530.996,1702.002 -2135,2707.998c-840.996,1401.006 -1401.992,2892.002 -1705.996,4532.002c-37.996,207.002 -110.996,690.996 -125,835c-4.004,35.996 -9.004,72.998 -10.996,82.998c-5,16.006 -104.004,17.002 -1894.004,17.002c-1107.996,0 -1890.994,-4.004 -1894.002,-9.004z" fill="#0089F3"/>
   <path id="svg_6" d="m30599.998,15557.996c0,-22.998 -117.002,-460.996 -180.996,-675.996c-826.006,-2792.002 -2548.008,-5262.998 -4894.004,-7022.998c-1740,-1306.005 -3747.998,-2168.007 -5889.998,-2529.003c-125.996,-20.996 -320,-50 -430,-64.004c-110,-15 -215,-28.994 -232.004,-31.992l-32.996,-5l0,-1885l0,-1885l47.996,5.996c26.008,2.998 171.008,19.004 322.004,35c3487,380.996 6817.996,1850 9484.002,4184.004c573.994,501.992 1177.998,1107.997 1677.998,1682.997c680.996,783.994 1295,1632.001 1825,2522.998c60,102.002 125,212.998 143.994,247.002l34.004,62.002l-97.998,187.998c-785,1505 -1360,3135.996 -1687.002,4782.002c-32.002,162.998 -62.002,316.992 -65,343.994c-7.002,42.998 -25,77.002 -25,45z"/>
  </g>
  <text stroke="#000" transform="matrix(4.716655644525503,0,0,3.501517609365265,-1453.303080456336,-9996.641420668) " xml:space="preserve" text-anchor="start" font-family="Helvetica, Arial, sans-serif" font-size="250" id="svg_7" y="4092.051286" x="309.460875" stroke-width="0" fill="#000000">Eternity Wall</text>
 </g>
</svg>